<svg width="224" height="54" viewBox="0 0 224 54" fill="none" xmlns="http://www.w3.org/2000/svg">
<g id="tipografia">
<g id="Audsat">
<path d="M0.601929 52.7738L21.8447 2.16519H27.7455L48.8407 52.7738H46.9883C42.5857 52.7738 38.6291 50.1304 37.0067 46.1051L23.1724 11.7808H26.2703L9.6006 52.7738H0.601929ZM11.0758 42.3018V35.072H38.4406V42.3018H11.0758Z" fill="#053267"/>
<path d="M66.8801 53.4967C63.8805 53.4967 61.2006 52.8461 58.8403 51.5447C56.5292 50.2433 54.7098 48.46 53.3821 46.1946C52.1036 43.8811 51.4644 41.2302 51.4644 38.2419V18.0707H59.5779V37.8804C59.5779 39.5673 59.8484 41.0133 60.3893 42.2183C60.9793 43.375 61.8153 44.2667 62.8971 44.8933C64.0281 45.5199 65.3557 45.8332 66.8801 45.8332C69.2404 45.8332 71.0352 45.1584 72.2646 43.8088C73.5431 42.411 74.1823 40.4349 74.1823 37.8804V18.0707H82.2959V38.2419C82.2959 41.2784 81.632 43.9534 80.3044 46.2669C79.0259 48.5323 77.231 50.3156 74.9199 51.617C72.6088 52.8702 69.9288 53.4967 66.8801 53.4967Z" fill="#053267"/>
<path d="M103.804 53.4967C100.608 53.4967 97.7068 52.7015 95.1006 51.1109C92.5436 49.5204 90.503 47.3755 88.9786 44.6764C87.5034 41.9291 86.7658 38.8685 86.7658 35.4945C86.7658 32.0724 87.5034 29.0118 88.9786 26.3127C90.503 23.5654 92.5436 21.3964 95.1006 19.8059C97.7068 18.1671 100.608 17.3478 103.804 17.3478C106.509 17.3478 108.894 17.9261 110.959 19.0829C113.073 20.1915 114.745 21.7338 115.975 23.71C117.204 25.6861 117.819 27.9274 117.819 30.4337V40.4108C117.819 42.9171 117.204 45.1584 115.975 47.1345C114.794 49.1107 113.147 50.6771 111.033 51.8339C108.918 52.9424 106.509 53.4967 103.804 53.4967ZM105.132 45.9777C107.148 45.9777 108.894 45.544 110.369 44.6764C111.893 43.7606 113.073 42.5074 113.909 40.9169C114.745 39.3263 115.163 37.4948 115.163 35.4222C115.163 33.3497 114.745 31.5182 113.909 29.9276C113.073 28.3371 111.893 27.108 110.369 26.2404C108.894 25.3246 107.148 24.8668 105.132 24.8668C103.165 24.8668 101.419 25.3246 99.895 26.2404C98.4198 27.108 97.2397 28.3371 96.3546 29.9276C95.5186 31.5182 95.1006 33.3497 95.1006 35.4222C95.1006 37.4948 95.5186 39.3263 96.3546 40.9169C97.2397 42.5074 98.4198 43.7606 99.895 44.6764C101.419 45.544 103.165 45.9777 105.132 45.9777ZM122.76 52.7738C118.279 52.7738 114.647 49.2012 114.647 44.7941V43.4473L116.048 34.9885L114.647 26.6019V0.719238H122.76V52.7738Z" fill="#053267"/>
<path d="M141.87 53.4967C139.903 53.4967 138.01 53.2557 136.19 52.7738C134.371 52.2436 132.699 51.5206 131.175 50.6048C129.65 49.6408 128.323 48.4841 127.192 47.1345L132.355 42.0737C133.584 43.4714 134.986 44.5318 136.559 45.2548C138.182 45.9296 140.001 46.2669 142.017 46.2669C143.837 46.2669 145.214 46.0019 146.148 45.4717C147.082 44.9415 147.549 44.1703 147.549 43.1581C147.549 42.0978 147.107 41.2784 146.222 40.7C145.337 40.1216 144.181 39.6396 142.755 39.254C141.378 38.8203 139.903 38.3865 138.33 37.9527C136.805 37.5189 135.33 36.9405 133.904 36.2175C132.527 35.4464 131.396 34.4101 130.511 33.1087C129.626 31.8074 129.183 30.1204 129.183 28.0479C129.183 25.8307 129.7 23.9269 130.732 22.3363C131.814 20.7458 133.314 19.5167 135.232 18.6491C137.199 17.7816 139.534 17.3478 142.239 17.3478C145.091 17.3478 147.599 17.8539 149.762 18.866C151.975 19.83 153.819 21.3001 155.294 23.2762L150.131 28.337C149.098 27.0839 147.918 26.144 146.591 25.5174C145.263 24.8909 143.739 24.5776 142.017 24.5776C140.395 24.5776 139.141 24.8186 138.256 25.3005C137.371 25.7825 136.928 26.4814 136.928 27.3972C136.928 28.3612 137.371 29.1082 138.256 29.6384C139.141 30.1686 140.272 30.6265 141.649 31.0121C143.075 31.3977 144.55 31.8314 146.074 32.3134C147.648 32.7472 149.123 33.3738 150.5 34.1932C151.926 34.9644 153.081 36.0247 153.967 37.3743C154.852 38.6757 155.294 40.3867 155.294 42.5075C155.294 45.8814 154.089 48.5564 151.68 50.5325C149.271 52.5087 146.001 53.4967 141.87 53.4967Z" fill="#053267"/>
<path d="M175.334 53.4967C172.138 53.4967 169.236 52.7015 166.63 51.1109C164.073 49.5204 162.032 47.3755 160.508 44.6764C159.033 41.9291 158.295 38.8685 158.295 35.4945C158.295 32.0724 159.033 29.0118 160.508 26.3127C162.032 23.5654 164.073 21.3964 166.63 19.8059C169.236 18.1671 172.138 17.3478 175.334 17.3478C178.038 17.3478 180.423 17.9261 182.488 19.0829C184.603 20.1915 186.275 21.7338 187.504 23.71C188.733 25.6861 189.348 27.9274 189.348 30.4337V40.4108C189.348 42.9171 188.733 45.1584 187.504 47.1345C186.324 49.1107 184.677 50.6771 182.562 51.8339C180.448 52.9424 178.038 53.4967 175.334 53.4967ZM176.661 45.9777C179.661 45.9777 182.07 44.9897 183.89 43.0135C185.758 41.0374 186.693 38.507 186.693 35.4222C186.693 33.3497 186.275 31.5182 185.439 29.9276C184.603 28.3371 183.423 27.108 181.898 26.2404C180.423 25.3246 178.678 24.8668 176.661 24.8668C174.695 24.8668 172.949 25.3246 171.425 26.2404C169.949 27.108 168.769 28.3371 167.884 29.9276C167.048 31.5182 166.63 33.3497 166.63 35.4222C166.63 37.4948 167.048 39.3263 167.884 40.9169C168.769 42.5074 169.949 43.7606 171.425 44.6764C172.949 45.544 174.695 45.9777 176.661 45.9777ZM194.29 52.7738C189.809 52.7738 186.176 49.2012 186.176 44.7941V43.4473L187.578 34.9885L186.176 26.6019V18.0707H194.29V52.7738Z" fill="#053267"/>
<path d="M214.842 52.7738C210.361 52.7738 206.729 49.2011 206.729 44.7941V3.61116H214.842V52.7738ZM198.246 25.3005V18.0707H223.324V25.3005H198.246Z" fill="#053267"/>
</g>
</g>
</svg>
